<?xml version="1.0" encoding="UTF-8" standalone="no"?>
<!DOCTYPE svg PUBLIC "-//W3C//DTD SVG 1.1//EN"
 "http://www.w3.org/Graphics/SVG/1.1/DTD/svg11.dtd">
<!-- Generated by graphviz version 2.48.0 (20210717.1556)
 -->
<!-- Pages: 1 -->
<svg width="1520pt" height="392pt"
 viewBox="0.00 0.00 1520.27 392.00" xmlns="http://www.w3.org/2000/svg" xmlns:xlink="http://www.w3.org/1999/xlink">
<g id="graph0" class="graph" transform="scale(1 1) rotate(0) translate(4 388)">
<polygon fill="white" stroke="transparent" points="-4,4 -4,-388 1516.27,-388 1516.27,4 -4,4"/>
<!-- backend/catalog[Deployment] -->
<g id="node1" class="node">
<title>backend/catalog[Deployment]</title>
<ellipse fill="none" stroke="blue" cx="1156.14" cy="-18" rx="119.68" ry="18"/>
<text text-anchor="middle" x="1156.14" y="-14.3" font-family="Times New Roman,serif" font-size="14.00" fill="blue">backend/catalog[Deployment]</text>
</g>
<!-- backend/checkout[Deployment] -->
<g id="node2" class="node">
<title>backend/checkout[Deployment]</title>
<ellipse fill="none" stroke="blue" cx="732.14" cy="-192" rx="126.98" ry="18"/>
<text text-anchor="middle" x="732.14" y="-188.3" font-family="Times New Roman,serif" font-size="14.00" fill="blue">backend/checkout[Deployment]</text>
</g>
<!-- backend/notification[Deployment] -->
<g id="node3" class="node">
<title>backend/notification[Deployment]</title>
<ellipse fill="none" stroke="blue" cx="388.14" cy="-105" rx="133.78" ry="18"/>
<text text-anchor="middle" x="388.14" y="-101.3" font-family="Times New Roman,serif" font-size="14.00" fill="blue">backend/notification[Deployment]</text>
</g>
<!-- backend/checkout[Deployment]&#45;&gt;backend/notification[Deployment] -->
<g id="edge1" class="edge">
<title>backend/checkout[Deployment]&#45;&gt;backend/notification[Deployment]</title>
<path fill="none" stroke="#eec900" d="M671.82,-176.1C612.47,-161.43 521.86,-139.04 459.08,-123.53"/>
<polygon fill="#eec900" stroke="#eec900" points="459.8,-120.1 449.25,-121.1 458.12,-126.9 459.8,-120.1"/>
<text text-anchor="middle" x="610.14" y="-144.8" font-family="Times New Roman,serif" font-size="14.00" fill="darkgreen">TCP 8080</text>
</g>
<!-- backend/recommendation[Deployment] -->
<g id="node4" class="node">
<title>backend/recommendation[Deployment]</title>
<ellipse fill="none" stroke="blue" cx="966.14" cy="-105" rx="154.07" ry="18"/>
<text text-anchor="middle" x="966.14" y="-101.3" font-family="Times New Roman,serif" font-size="14.00" fill="blue">backend/recommendation[Deployment]</text>
</g>
<!-- backend/checkout[Deployment]&#45;&gt;backend/recommendation[Deployment] -->
<g id="edge2" class="edge">
<title>backend/checkout[Deployment]&#45;&gt;backend/recommendation[Deployment]</title>
<path fill="none" stroke="#eec900" d="M771.05,-174.81C795.83,-164.68 828.69,-151.6 858.14,-141 873.12,-135.61 889.4,-130.13 904.68,-125.16"/>
<polygon fill="#eec900" stroke="#eec900" points="906.1,-128.38 914.54,-121.97 903.95,-121.72 906.1,-128.38"/>
<text text-anchor="middle" x="887.14" y="-144.8" font-family="Times New Roman,serif" font-size="14.00" fill="darkgreen">TCP 8080</text>
</g>
<!-- payments/gateway[Deployment] -->
<g id="node10" class="node">
<title>payments/gateway[Deployment]</title>
<ellipse fill="none" stroke="blue" cx="667.14" cy="-105" rx="126.98" ry="18"/>
<text text-anchor="middle" x="667.14" y="-101.3" font-family="Times New Roman,serif" font-size="14.00" fill="blue">payments/gateway[Deployment]</text>
</g>
<!-- backend/checkout[Deployment]&#45;&gt;payments/gateway[Deployment] -->
<g id="edge3" class="edge">
<title>backend/checkout[Deployment]&#45;&gt;payments/gateway[Deployment]</title>
<path fill="none" stroke="#eec900" d="M718.98,-173.8C709.64,-161.59 696.95,-144.99 686.47,-131.28"/>
<polygon fill="#eec900" stroke="#eec900" points="689.12,-128.99 680.27,-123.18 683.56,-133.25 689.12,-128.99"/>
<text text-anchor="middle" x="733.14" y="-144.8" font-family="Times New Roman,serif" font-size="14.00" fill="darkgreen">TCP 8080</text>
</g>
<!-- backend/recommendation[Deployment]&#45;&gt;backend/catalog[Deployment] -->
<g id="edge4" class="edge">
<title>backend/recommendation[Deployment]&#45;&gt;backend/catalog[Deployment]</title>
<path fill="none" stroke="#eec900" d="M1003.22,-87.41C1033.89,-73.69 1077.58,-54.15 1110.41,-39.46"/>
<polygon fill="#eec900" stroke="#eec900" points="1112.09,-42.54 1119.79,-35.26 1109.23,-36.15 1112.09,-42.54"/>
<text text-anchor="middle" x="1102.14" y="-57.8" font-family="Times New Roman,serif" font-size="14.00" fill="darkgreen">TCP 8080</text>
</g>
<!-- backend/reports[Deployment] -->
<g id="node5" class="node">
<title>backend/reports[Deployment]</title>
<ellipse fill="none" stroke="blue" cx="1126.14" cy="-192" rx="119.68" ry="18"/>
<text text-anchor="middle" x="1126.14" y="-188.3" font-family="Times New Roman,serif" font-size="14.00" fill="blue">backend/reports[Deployment]</text>
</g>
<!-- backend/reports[Deployment]&#45;&gt;backend/catalog[Deployment] -->
<g id="edge5" class="edge">
<title>backend/reports[Deployment]&#45;&gt;backend/catalog[Deployment]</title>
<path fill="none" stroke="#eec900" d="M1129.12,-173.88C1134.33,-144 1145.13,-82.11 1151.38,-46.27"/>
<polygon fill="#eec900" stroke="#eec900" points="1154.89,-46.5 1153.16,-36.05 1148,-45.3 1154.89,-46.5"/>
<text text-anchor="middle" x="1172.14" y="-101.3" font-family="Times New Roman,serif" font-size="14.00" fill="darkgreen">TCP 8080</text>
</g>
<!-- backend/reports[Deployment]&#45;&gt;backend/recommendation[Deployment] -->
<g id="edge6" class="edge">
<title>backend/reports[Deployment]&#45;&gt;backend/recommendation[Deployment]</title>
<path fill="none" stroke="#eec900" d="M1094.91,-174.41C1069.66,-161 1033.93,-142.02 1006.51,-127.45"/>
<polygon fill="#eec900" stroke="#eec900" points="1008.03,-124.29 997.56,-122.69 1004.75,-130.48 1008.03,-124.29"/>
<text text-anchor="middle" x="1085.14" y="-144.8" font-family="Times New Roman,serif" font-size="14.00" fill="darkgreen">TCP 8080</text>
</g>
<!-- backend/shipping[Deployment] -->
<g id="node6" class="node">
<title>backend/shipping[Deployment]</title>
<ellipse fill="none" stroke="blue" cx="1388.14" cy="-192" rx="124.28" ry="18"/>
<text text-anchor="middle" x="1388.14" y="-188.3" font-family="Times New Roman,serif" font-size="14.00" fill="blue">backend/shipping[Deployment]</text>
</g>
<!-- frontend/asset&#45;cache[Deployment] -->
<g id="node7" class="node">
<title>frontend/asset&#45;cache[Deployment]</title>
<ellipse fill="none" stroke="blue" cx="474.14" cy="-279" rx="135.68" ry="18"/>
<text text-anchor="middle" x="474.14" y="-275.3" font-family="Times New Roman,serif" font-size="14.00" fill="blue">frontend/asset&#45;cache[Deployment]</text>
</g>
<!-- frontend/blog[Deployment] -->
<g id="node8" class="node">
<title>frontend/blog[Deployment]</title>
<ellipse fill="none" stroke="blue" cx="738.14" cy="-279" rx="109.68" ry="18"/>
<text text-anchor="middle" x="738.14" y="-275.3" font-family="Times New Roman,serif" font-size="14.00" fill="blue">frontend/blog[Deployment]</text>
</g>
<!-- frontend/webapp[Deployment] -->
<g id="node9" class="node">
<title>frontend/webapp[Deployment]</title>
<ellipse fill="none" stroke="blue" cx="988.14" cy="-279" rx="122.38" ry="18"/>
<text text-anchor="middle" x="988.14" y="-275.3" font-family="Times New Roman,serif" font-size="14.00" fill="blue">frontend/webapp[Deployment]</text>
</g>
<!-- frontend/webapp[Deployment]&#45;&gt;backend/checkout[Deployment] -->
<g id="edge7" class="edge">
<title>frontend/webapp[Deployment]&#45;&gt;backend/checkout[Deployment]</title>
<path fill="none" stroke="#eec900" d="M927.84,-263.31C905.75,-257.52 880.65,-250.47 858.14,-243 831.63,-234.21 802.63,-222.82 779.14,-213.14"/>
<polygon fill="#eec900" stroke="#eec900" points="780.34,-209.85 769.76,-209.25 777.65,-216.31 780.34,-209.85"/>
<text text-anchor="middle" x="887.14" y="-231.8" font-family="Times New Roman,serif" font-size="14.00" fill="darkgreen">TCP 8080</text>
</g>
<!-- frontend/webapp[Deployment]&#45;&gt;backend/recommendation[Deployment] -->
<g id="edge8" class="edge">
<title>frontend/webapp[Deployment]&#45;&gt;backend/recommendation[Deployment]</title>
<path fill="none" stroke="#eec900" d="M971.17,-260.98C959.66,-248.17 945.44,-229.53 939.14,-210 930.69,-183.83 940.92,-153.31 951.13,-132.13"/>
<polygon fill="#eec900" stroke="#eec900" points="954.3,-133.6 955.74,-123.11 948.07,-130.42 954.3,-133.6"/>
<text text-anchor="middle" x="968.14" y="-188.3" font-family="Times New Roman,serif" font-size="14.00" fill="darkgreen">TCP 8080</text>
</g>
<!-- frontend/webapp[Deployment]&#45;&gt;backend/reports[Deployment] -->
<g id="edge9" class="edge">
<title>frontend/webapp[Deployment]&#45;&gt;backend/reports[Deployment]</title>
<path fill="none" stroke="#eec900" d="M1015.07,-261.41C1036.63,-248.13 1067.06,-229.39 1090.61,-214.88"/>
<polygon fill="#eec900" stroke="#eec900" points="1092.59,-217.77 1099.27,-209.55 1088.92,-211.81 1092.59,-217.77"/>
<text text-anchor="middle" x="1095.14" y="-231.8" font-family="Times New Roman,serif" font-size="14.00" fill="darkgreen">TCP 8080</text>
</g>
<!-- frontend/webapp[Deployment]&#45;&gt;backend/shipping[Deployment] -->
<g id="edge10" class="edge">
<title>frontend/webapp[Deployment]&#45;&gt;backend/shipping[Deployment]</title>
<path fill="none" stroke="#eec900" d="M1054.64,-263.87C1125.33,-248.85 1236.97,-225.12 1311.36,-209.32"/>
<polygon fill="#eec900" stroke="#eec900" points="1312.09,-212.74 1321.14,-207.24 1310.63,-205.89 1312.09,-212.74"/>
<text text-anchor="middle" x="1240.14" y="-231.8" font-family="Times New Roman,serif" font-size="14.00" fill="darkgreen">TCP 8080</text>
</g>
<!-- payments/mastercard&#45;processor[Deployment] -->
<g id="node11" class="node">
<title>payments/mastercard&#45;processor[Deployment]</title>
<ellipse fill="none" stroke="blue" cx="842.14" cy="-18" rx="176.57" ry="18"/>
<text text-anchor="middle" x="842.14" y="-14.3" font-family="Times New Roman,serif" font-size="14.00" fill="blue">payments/mastercard&#45;processor[Deployment]</text>
</g>
<!-- payments/gateway[Deployment]&#45;&gt;payments/mastercard&#45;processor[Deployment] -->
<g id="edge11" class="edge">
<title>payments/gateway[Deployment]&#45;&gt;payments/mastercard&#45;processor[Deployment]</title>
<path fill="none" stroke="#eec900" d="M700.88,-87.61C728.69,-74.1 768.34,-54.85 798.55,-40.17"/>
<polygon fill="#eec900" stroke="#eec900" points="800.13,-43.29 807.6,-35.77 797.08,-37 800.13,-43.29"/>
<text text-anchor="middle" x="794.14" y="-57.8" font-family="Times New Roman,serif" font-size="14.00" fill="darkgreen">TCP 8080</text>
</g>
<!-- payments/visa&#45;processor&#45;v2[Deployment] -->
<g id="node12" class="node">
<title>payments/visa&#45;processor&#45;v2[Deployment]</title>
<ellipse fill="none" stroke="blue" cx="163.14" cy="-18" rx="163.27" ry="18"/>
<text text-anchor="middle" x="163.14" y="-14.3" font-family="Times New Roman,serif" font-size="14.00" fill="blue">payments/visa&#45;processor&#45;v2[Deployment]</text>
</g>
<!-- payments/gateway[Deployment]&#45;&gt;payments/visa&#45;processor&#45;v2[Deployment] -->
<g id="edge12" class="edge">
<title>payments/gateway[Deployment]&#45;&gt;payments/visa&#45;processor&#45;v2[Deployment]</title>
<path fill="none" stroke="#eec900" d="M588.94,-90.81C499.75,-75.77 353.92,-51.18 258.23,-35.04"/>
<polygon fill="#eec900" stroke="#eec900" points="258.7,-31.57 248.26,-33.36 257.54,-38.47 258.7,-31.57"/>
<text text-anchor="middle" x="475.14" y="-57.8" font-family="Times New Roman,serif" font-size="14.00" fill="darkgreen">TCP 8080</text>
</g>
<!-- payments/visa&#45;processor[Deployment] -->
<g id="node13" class="node">
<title>payments/visa&#45;processor[Deployment]</title>
<ellipse fill="none" stroke="blue" cx="496.14" cy="-18" rx="151.37" ry="18"/>
<text text-anchor="middle" x="496.14" y="-14.3" font-family="Times New Roman,serif" font-size="14.00" fill="blue">payments/visa&#45;processor[Deployment]</text>
</g>
<!-- payments/gateway[Deployment]&#45;&gt;payments/visa&#45;processor[Deployment] -->
<g id="edge13" class="edge">
<title>payments/gateway[Deployment]&#45;&gt;payments/visa&#45;processor[Deployment]</title>
<path fill="none" stroke="#eec900" d="M634.17,-87.61C607.02,-74.12 568.33,-54.89 538.82,-40.22"/>
<polygon fill="#eec900" stroke="#eec900" points="540.1,-36.95 529.59,-35.63 536.99,-43.21 540.1,-36.95"/>
<text text-anchor="middle" x="621.14" y="-57.8" font-family="Times New Roman,serif" font-size="14.00" fill="darkgreen">TCP 8080</text>
</g>
<!-- zeroday/zeroday[Deployment] -->
<g id="node14" class="node">
<title>zeroday/zeroday[Deployment]</title>
<ellipse fill="none" stroke="blue" cx="1248.14" cy="-279" rx="120.48" ry="18"/>
<text text-anchor="middle" x="1248.14" y="-275.3" font-family="Times New Roman,serif" font-size="14.00" fill="blue">zeroday/zeroday[Deployment]</text>
</g>
<!-- {ingress&#45;controller} -->
<g id="node15" class="node">
<title>{ingress&#45;controller}</title>
<ellipse fill="none" stroke="blue" cx="863.14" cy="-366" rx="82.59" ry="18"/>
<text text-anchor="middle" x="863.14" y="-362.3" font-family="Times New Roman,serif" font-size="14.00" fill="blue">{ingress&#45;controller}</text>
</g>
<!-- {ingress&#45;controller}&#45;&gt;frontend/asset&#45;cache[Deployment] -->
<g id="edge14" class="edge">
<title>{ingress&#45;controller}&#45;&gt;frontend/asset&#45;cache[Deployment]</title>
<path fill="none" stroke="#eec900" d="M806.99,-352.73C739.73,-338.04 626.72,-313.34 551.3,-296.86"/>
<polygon fill="#eec900" stroke="#eec900" points="551.89,-293.41 541.37,-294.69 550.39,-300.25 551.89,-293.41"/>
<text text-anchor="middle" x="721.14" y="-318.8" font-family="Times New Roman,serif" font-size="14.00" fill="darkgreen">TCP 8080</text>
</g>
<!-- {ingress&#45;controller}&#45;&gt;frontend/blog[Deployment] -->
<g id="edge15" class="edge">
<title>{ingress&#45;controller}&#45;&gt;frontend/blog[Deployment]</title>
<path fill="none" stroke="#eec900" d="M839.03,-348.61C819.7,-335.47 792.37,-316.88 771.03,-302.37"/>
<polygon fill="#eec900" stroke="#eec900" points="772.83,-299.36 762.59,-296.63 768.89,-305.15 772.83,-299.36"/>
<text text-anchor="middle" x="837.14" y="-318.8" font-family="Times New Roman,serif" font-size="14.00" fill="darkgreen">TCP 8080</text>
</g>
<!-- {ingress&#45;controller}&#45;&gt;frontend/webapp[Deployment] -->
<g id="edge16" class="edge">
<title>{ingress&#45;controller}&#45;&gt;frontend/webapp[Deployment]</title>
<path fill="none" stroke="#eec900" d="M887.24,-348.61C906.44,-335.55 933.54,-317.12 954.82,-302.65"/>
<polygon fill="#eec900" stroke="#eec900" points="956.95,-305.44 963.25,-296.92 953.02,-299.65 956.95,-305.44"/>
<text text-anchor="middle" x="962.14" y="-318.8" font-family="Times New Roman,serif" font-size="14.00" fill="darkgreen">TCP 8080</text>
</g>
<!-- {ingress&#45;controller}&#45;&gt;zeroday/zeroday[Deployment] -->
<g id="edge17" class="edge">
<title>{ingress&#45;controller}&#45;&gt;zeroday/zeroday[Deployment]</title>
<path fill="none" stroke="#eec900" d="M919.12,-352.64C986.38,-337.79 1099.46,-312.83 1173.94,-296.38"/>
<polygon fill="#eec900" stroke="#eec900" points="1174.72,-299.79 1183.73,-294.22 1173.21,-292.96 1174.72,-299.79"/>
<text text-anchor="middle" x="1108.14" y="-318.8" font-family="Times New Roman,serif" font-size="14.00" fill="darkgreen">TCP 8080</text>
</g>
</g>
</svg>
